PathFileType	4	(X/Y/Z)	D:\Research_projects\MuscleProsody\BulkSports2Dtrack\RetrackedSports2D\p1_sample60_cam1\p1_sample60_cam1_Sports2D\p1_sample60_cam1_Sports2D_px_person00.trc
DataRate	CameraRate	NumFrames	NumMarkers	Units	OrigDataRate	OrigDataStartFrame	OrigNumFrames
60	60	6	22	m	60	682	780
Frame#	Time	Hip			RHip			RKnee			RAnkle			RBigToe			RSmallToe			RHeel			LHip			LKnee			LAnkle			LBigToe			LSmallToe			LHeel			Neck			Head			Nose			RShoulder			RElbow			RWrist			LShoulder			LElbow			LWrist		
		X1	Y1	Z1	X2	Y2	Z2	X3	Y3	Z3	X4	Y4	Z4	X5	Y5	Z5	X6	Y6	Z6	X7	Y7	Z7	X8	Y8	Z8	X9	Y9	Z9	X10	Y10	Z10	X11	Y11	Z11	X12	Y12	Z12	X13	Y13	Z13	X14	Y14	Z14	X15	Y15	Z15	X16	Y16	Z16	X17	Y17	Z17	X18	Y18	Z18	X19	Y19	Z19	X20	Y20	Z20	X21	Y21	Z21	X22	Y22	Z22
682	11.366666666666667	320.5358351947023	540.8120527300779	0.0	294.1221536694462	540.6539215191465	0.0	287.2813806029701	679.126952398645	0.0	273.9517539218917	805.7536593231353	0.0	310.9337141468419	850.933462650005	0.0	288.1284830293676	855.4848425917404	0.0	261.8527364332619	818.3348732659847	0.0	348.34676267396566	541.5543191983812	0.0	333.4600289016878	673.061411420405	0.0	312.5217204006942	786.8350452355179	0.0	348.546687752584	829.8410275174555	0.0	352.0004671871651	816.2580827361163	0.0	297.74168820725924	798.9459079491097	0.0	330.11383962344325	324.3027731883801	0.0	357.5733700348225	224.78687348120698	0.0	359.48590277300764	288.6808027011174	0.0	273.5817204676335	359.40796708546327	0.0	232.93740506105178	447.470456477782	0.0	292.26002289961116	470.50359433131456	0.0	365.5721323660388	365.8290066694748	0.0	363.9780572691393	453.3274877572958	0.0	384.48864599869864	517.5003486269608	0.0
683	11.383333333333333	320.27255676338393	540.7263953928457	0.0	294.0026801578287	540.4832822271068	0.0	287.22728036956426	678.9302773403853	0.0	273.7478622030095	805.7537531386097	0.0	311.05001751915245	850.8676614332339	0.0	288.43158879108796	855.4025266665284	0.0	261.38394327880883	818.2889574486811	0.0	348.1966496332177	541.4825391736828	0.0	333.44924172904325	672.87531576975	0.0	312.47559612948396	786.7955572749084	0.0	348.5641774790301	829.7163082251913	0.0	352.03108830425174	816.2260312521053	0.0	297.5396901832694	799.0515763610123	0.0	330.1840281330347	324.2282728989507	0.0	357.43721877846343	224.80707151369555	0.0	359.6086009583743	288.5663029913702	0.0	273.83592769686965	359.4843322956427	0.0	234.3197054371145	449.8492958065478	0.0	301.39518266691636	474.33915779281887	0.0	365.4204610984984	365.8660214577848	0.0	363.4204446857244	453.3443029264565	0.0	384.2154977515389	517.32614616839	0.0
684	11.4	319.9481876796627	540.6100908260862	0.0	293.7868891587301	540.2050019500268	0.0	287.16292201564954	678.6310117865429	0.0	273.56222209044364	805.8082787100868	0.0	311.1758252377306	850.7923755810841	0.0	288.76639427631636	855.3308883529556	0.0	260.96718017490457	818.2860234806955	0.0	347.93486421910336	541.2886788310279	0.0	333.4377021676143	672.620941016581	0.0	312.4370669849098	786.7235611054717	0.0	348.55982113964404	829.5629903500311	0.0	352.04620624283166	816.1832699762748	0.0	297.38973599265535	799.1874492150174	0.0	330.24792912234824	324.1709043851806	0.0	357.3863413558484	224.86130601393012	0.0	359.77815784737885	288.4568919085187	0.0	274.04444840645607	359.66580133543255	0.0	236.0664513783204	452.2062211582794	0.0	309.69714050502165	478.89561121228775	0.0	365.2506376201942	365.89439266071344	0.0	362.8584258572139	453.4015810327231	0.0	383.9429161010053	517.26181559845	0.0
685	11.416666666666666	319.57098364277823	540.4467113552214	0.0	293.4565531387353	539.8054887166877	0.0	287.0804928820575	678.2231076134684	0.0	273.40603737559127	805.9170914950022	0.0	311.2994248268106	850.7208270436587	0.0	289.1107062126072	855.27908618084	0.0	260.6344421641161	818.3326670442068	0.0	347.5565757141988	540.9580768429236	0.0	333.4276716709399	672.302411973027	0.0	312.40446492046055	786.6180763862059	0.0	348.5207497432341	829.3963390484777	0.0	352.03837787679026	816.1332626265441	0.0	297.2894357627241	799.3396254737643	0.0	330.30337116853667	324.1233250221182	0.0	357.4165122300241	224.9416565691947	0.0	359.9802249350912	288.34776994933475	0.0	274.190992600913	359.95248482711696	0.0	238.11723911296195	454.538467505195	0.0	317.0894429176607	484.0906439380572	0.0	365.07054592470956	365.90874091699834	0.0	362.3490186283783	453.51393455397726	0.0	383.6835137933147	517.3457375035745	0.0
686	11.433333333333334	319.15630388611896	540.2233957458326	0.0	293.00607538660023	539.2792140276056	0.0	286.9761310026315	677.7135725572522	0.0	273.2888203294466	806.0715531454592	0.0	311.4053659805922	850.6627671014494	0.0	289.44210737614645	855.2480881144827	0.0	260.40584459511064	818.4252860680488	0.0	347.0673350172452	540.4853253065822	0.0	333.4251257103489	671.9296709607679	0.0	312.3749031256039	786.476383458844	0.0	348.4385346062383	829.2257203683266	0.0	352.0056521812021	816.0755055614604	0.0	297.2336164709926	799.492155391029	0.0	330.3510742165954	324.07761903464757	0.0	357.5190033390807	225.03721105758538	0.0	360.2002497124013	288.23763383398153	0.0	274.26523849925195	360.3351984763707	0.0	240.39755085021997	456.82872235135267	0.0	323.51840352309046	489.81348009593404	0.0	364.88925962214137	365.9046183607257	0.0	361.94612355045876	453.69629145214867	0.0	383.4510286289669	517.616693894859	0.0
687	11.45	318.72451259871855	539.9296782114616	0.0	292.44610256969986	538.6279793144614	0.0	286.8496960137163	677.1206790259631	0.0	273.2150069203201	806.2528926817704	0.0	311.47925504813435	850.6209706171662	0.0	289.74399479021554	855.231851072714	0.0	260.2819885679711	818.5479999843722	0.0	346.481950813198	539.8750147412753	0.0	333.43675389052254	671.5154634376838	0.0	312.3462952902643	786.2922989778118	0.0	348.3098457111499	829.0562255085812	0.0	351.9518901723498	816.0084106871504	0.0	297.2164460505505	799.6239305054651	0.0	330.39262018444225	324.0256025086243	0.0	357.6837743053703	225.13701161061002	0.0	360.42337205871286	288.1278314939582	0.0	274.2640359564686	360.7962875081714	0.0	242.82490130757134	459.0459087838977	0.0	328.94709474555856	495.9339933374986	0.0	364.71505486689335	365.878606329945	0.0	361.69083700829486	453.96296753859883	0.0	383.2588959038721	518.1125334808962	0.0
